<?xml version="1.0" encoding="utf-8"?>
<!-- Generator: Adobe Illustrator 19.2.1, SVG Export Plug-In . SVG Version: 6.00 Build 0)  -->
<svg version="1.1" id="Layer_1" xmlns="http://www.w3.org/2000/svg" xmlns:xlink="http://www.w3.org/1999/xlink" x="0px" y="0px"
	 width="88px" height="68px" viewBox="0 0 88 68" style="enable-background:new 0 0 88 68;" xml:space="preserve">
<g>
	<g>
		<path d="M4,28c7.7,0,14-6.3,14-14c0-3.3,2.7-6,6-6s6,2.7,6,6c0,7.7,6.3,14,14,14c7.7,0,14-6.3,14-14c0-3.3,2.7-6,6-6
			c3.3,0,6,2.7,6,6c0,7.7,6.3,14,14,14c5.4,0,5.4-8,0-8c-3.3,0-6-2.7-6-6c0-7.7-6.3-14-14-14c-7.7,0-14,6.3-14,14c0,3.3-2.7,6-6,6
			c-3.3,0-6-2.7-6-6c0-7.7-6.3-14-14-14S10,6.3,10,14c0,3.3-2.7,6-6,6C-1.3,20-1.3,28,4,28z M84,60c-3.3,0-6-2.7-6-6
			c0-7.7-6.3-14-14-14c-7.7,0-14,6.3-14,14c0,3.3-2.7,6-6,6c-3.3,0-6-2.7-6-6c0-7.7-6.3-14-14-14s-14,6.3-14,14c0,3.3-2.7,6-6,6
			c-5.4,0-5.4,8,0,8c7.7,0,14-6.3,14-14c0-3.3,2.7-6,6-6s6,2.7,6,6c0,7.7,6.3,14,14,14c7.7,0,14-6.3,14-14c0-3.3,2.7-6,6-6
			c3.3,0,6,2.7,6,6c0,7.7,6.3,14,14,14C89.3,68,89.3,60,84,60z"/>
	</g>
</g>
</svg>
