<?xml version="1.0" encoding="utf-8"?>
<!-- Generator: Adobe Illustrator 19.2.1, SVG Export Plug-In . SVG Version: 6.00 Build 0)  -->
<svg version="1.1" id="Layer_1" xmlns="http://www.w3.org/2000/svg" xmlns:xlink="http://www.w3.org/1999/xlink" x="0px" y="0px"
	 width="88px" height="68px" viewBox="0 0 88 68" style="enable-background:new 0 0 88 68;" xml:space="preserve">
<g>
	<g>
		<path d="M64,0c-8.3,0-15.7,4.3-20,10.7C39.7,4.3,32.3,0,24,0C10.8,0,0,10.7,0,24c0,6.3,2.4,12.3,6.9,16.8c3.6,3.6,9.5-1.7,5.7-5.6
			c-3-3-4.6-7-4.6-11.2c0-8.8,7.2-16,16-16s16,7.2,16,16V64c0,5.3,8,5.3,8,0V24c0-8.8,7.2-16,16-16s16,7.2,16,16
			c0,4.2-1.6,8.2-4.6,11.2c-3.6,3.7,2.1,9.3,5.7,5.6C85.5,36.3,88,30.3,88,24C88,10.7,77.2,0,64,0z"/>
	</g>
</g>
</svg>
