<?xml version="1.0" encoding="utf-8"?>
<!-- Generator: Adobe Illustrator 19.2.1, SVG Export Plug-In . SVG Version: 6.00 Build 0)  -->
<svg version="1.1" id="Layer_1" xmlns="http://www.w3.org/2000/svg" xmlns:xlink="http://www.w3.org/1999/xlink" x="0px" y="0px"
	 width="88px" height="68px" viewBox="0 0 88 68" style="enable-background:new 0 0 88 68;" xml:space="preserve">
<g>
	<g>
		<path d="M74,30c-7.7,0-14,6.3-14,14v6h-6c-3.3,0-6-2.7-6-6V14c0-7.7-6.3-14-14-14c-3.9,0-7.5,1.6-10,4.2C21.5,1.6,17.9,0,14,0
			C6.3,0,0,6.3,0,14c0,5.3,8,5.3,8,0c0-3.3,2.7-6,6-6s6,2.7,6,6v40c0,5.2,8,5.2,8,0V14c0-3.3,2.7-6,6-6s6,2.7,6,6v30
			c0,7.7,6.3,14,14,14h6v6c0,5.3,8,5.3,8,0v-6h6c7.7,0,14-6.3,14-14C88,36.3,81.7,30,74,30z M74,50h-6v-6c0-3.3,2.7-6,6-6s6,2.7,6,6
			S77.3,50,74,50z"/>
	</g>
</g>
</svg>
