<?xml version="1.0" encoding="utf-8"?>
<!-- Generator: Adobe Illustrator 19.2.1, SVG Export Plug-In . SVG Version: 6.00 Build 0)  -->
<svg version="1.1" id="Layer_1" xmlns="http://www.w3.org/2000/svg" xmlns:xlink="http://www.w3.org/1999/xlink" x="0px" y="0px"
	 width="68px" height="88px" viewBox="0 0 68 88" style="enable-background:new 0 0 68 88;" xml:space="preserve">
<g>
	<g>
		<path d="M60.1,75.1c-0.6,3.3-3.8,5.4-7.2,4.8c-1.6-0.3-3-1.2-3.9-2.6c-0.9-1.3-1.2-2.9-0.9-4.4l9.6-44.3c0.8-3.9,0.5-8.1-0.7-11.9
			C52.9,4.1,39.2-2.9,26.5,1.1c-6.2,2-11.2,6.2-14.2,12c-2.9,5.7-3.5,12.2-1.5,18.2l5.6,18.8c-0.7-0.1-1.5-0.2-2.2-0.2
			c-1.5,0-2.9,0.2-4.3,0.7c-3.6,1.1-6.5,3.6-8.3,6.9c-1.7,3.3-2,7.1-0.9,10.7C2.5,74.1,8,78,14.1,78c1.4,0,2.9-0.2,4.3-0.7
			c3.6-1.1,6.5-3.6,8.3-7c1.7-3.3,2-7,0.9-10.5c0,0,0,0,0,0l-9.2-30.9c-1.3-4.1-0.9-8.4,1-12.2c2-3.8,5.4-6.7,9.5-8
			c8.5-2.7,17.7,2,20.4,10.4c0.8,2.6,1,5.3,0.5,7.8l-9.6,44.3c-0.7,3.7,0.1,7.4,2.2,10.5c2.1,3.1,5.3,5.2,9,5.9
			c0.9,0.2,1.8,0.3,2.7,0.3c6.6,0,12.5-4.7,13.8-11.4C68.9,71.5,61.1,70,60.1,75.1z M20.1,64c0,3.3-2.7,6-6,6s-6-2.7-6-6
			c0-3.3,2.7-6,6-6S20.1,60.7,20.1,64z"/>
	</g>
</g>
</svg>
