<?xml version="1.0" encoding="utf-8"?>
<!-- Generator: Adobe Illustrator 19.2.1, SVG Export Plug-In . SVG Version: 6.00 Build 0)  -->
<svg version="1.1" id="Layer_1" xmlns="http://www.w3.org/2000/svg" xmlns:xlink="http://www.w3.org/1999/xlink" x="0px" y="0px"
	 width="88px" height="68px" viewBox="0 0 88 68" style="enable-background:new 0 0 88 68;" xml:space="preserve">
<g>
	<g>
		<path d="M84,60h-80c-5.2,0-5.2,8,0,8h80C89.3,68,89.3,60,84,60z M3.9,48h20.5c2.2,0,4-1.8,4-4V24c0-8.8,7.2-16,16-16s16,7.2,16,16
			v20c0,2.2,1.8,4,4,4H84c5.2,0,5.2-8,0-8H68.5V24c0-13.2-10.8-24-24-24c-13.2,0-24,10.8-24,24v16H3.9C-1.2,40-1.2,48,3.9,48z"/>
	</g>
</g>
</svg>
