<?xml version="1.0" encoding="utf-8"?>
<!-- Generator: Adobe Illustrator 19.2.1, SVG Export Plug-In . SVG Version: 6.00 Build 0)  -->
<svg version="1.1" id="Layer_1" xmlns="http://www.w3.org/2000/svg" xmlns:xlink="http://www.w3.org/1999/xlink" x="0px" y="0px"
	 width="131.4px" height="131.4px" viewBox="0 0 131.4 131.4" style="enable-background:new 0 0 131.4 131.4;" xml:space="preserve"
	>
<style type="text/css">
	.st0{fill:#FFFFFF;}
	.st1{fill:#666666;}
	.st2{fill:#F2F2F2;}
	.st3{opacity:0.4;fill:none;stroke:#F2F2F2;stroke-linecap:round;stroke-miterlimit:10;}
	.st4{fill:none;stroke:#FFFFFF;stroke-width:2;stroke-miterlimit:10;}
	.st5{fill:none;stroke:#FFFFFF;stroke-width:2;stroke-linecap:round;stroke-linejoin:round;stroke-miterlimit:10;}
	.st6{fill:none;stroke:#FFFFFF;stroke-width:7;stroke-miterlimit:10;}
	.st7{fill:none;stroke:#FFFFFF;stroke-miterlimit:10;}
	.st8{fill:none;stroke:#FFFFFF;stroke-width:0.7716;stroke-miterlimit:10;}
	.st9{fill:#F68200;}
	.st10{fill:none;stroke:#FFFFFF;stroke-width:1.151;stroke-miterlimit:10;}
	.st11{fill:none;stroke:#FFFFFF;stroke-width:1.0082;stroke-miterlimit:10;}
	.st12{fill:none;stroke:#FFFFFF;stroke-width:0.5633;stroke-miterlimit:10;}
	.st13{fill:none;stroke:#FFFFFF;stroke-width:0.2716;stroke-miterlimit:10;}
	.st14{fill:none;stroke:#FFFFFF;stroke-width:0.272;stroke-miterlimit:10;}
	.st15{fill:none;stroke:#FFFFFF;stroke-width:6;stroke-miterlimit:10;}
	.st16{fill:#808080;}
	.st17{fill:none;stroke:#000000;stroke-width:0.4769;stroke-miterlimit:10;}
	.st18{fill:none;stroke:#FFFFFF;stroke-width:0.4769;stroke-miterlimit:10;}
	.st19{fill:#001382;}
	.st20{fill:none;stroke:#808080;stroke-miterlimit:10;}
	.st21{fill:none;stroke:#808080;stroke-linecap:round;stroke-miterlimit:10;}
</style>
<g>
	<rect x="3.1" y="60.4" transform="matrix(0.9567 -0.2909 0.2909 0.9567 -16.9287 7.9816)" class="st0" width="30.6" height="1"/>
</g>
<g>
	<rect x="14.5" y="94.6" transform="matrix(0.5909 -0.8067 0.8067 0.5909 -63.5994 64.7456)" class="st0" width="35.1" height="1"/>
</g>
<g>
	<circle class="st0" cx="127.6" cy="66" r="3.8"/>
</g>
<g>
	<circle class="st0" cx="106.3" cy="76" r="3.8"/>
</g>
<g>
	<circle class="st0" cx="65.7" cy="66" r="3.8"/>
</g>
<g>
	<circle class="st0" cx="59.4" cy="25" r="3.8"/>
</g>
<g>
	<ellipse transform="matrix(0.7071 -0.7071 0.7071 0.7071 -16.7393 49.5229)" class="st0" cx="51.4" cy="45" rx="3.8" ry="3.8"/>
</g>
<g>
	<circle class="st0" cx="33" cy="56.4" r="3.8"/>
</g>
<g>
	<ellipse transform="matrix(0.7071 -0.7071 0.7071 0.7071 -44.9481 53.3852)" class="st0" cx="42" cy="80.9" rx="3.8" ry="3.8"/>
</g>
<g>
	<ellipse transform="matrix(0.7071 -0.7071 0.7071 0.7071 -55.207 77.502)" class="st0" cx="65.9" cy="105.4" rx="3.8" ry="3.8"/>
</g>
<g>
	<ellipse transform="matrix(0.7071 -0.7071 0.7071 0.7071 16.4924 84.0389)" class="st0" cx="109.7" cy="22.1" rx="3.8" ry="3.8"/>
</g>
<g>
	<circle class="st0" cx="65.5" cy="3.8" r="3.8"/>
</g>
<g>
	<ellipse transform="matrix(0.7071 -0.7071 0.7071 0.7071 -8.8461 21.9818)" class="st0" cx="22.1" cy="21.7" rx="3.8" ry="3.8"/>
</g>
<g>
	<circle class="st0" cx="3.8" cy="65.4" r="3.8"/>
</g>
<g>
	<ellipse transform="matrix(0.7071 -0.7071 0.7071 0.7071 -70.9034 47.3204)" class="st0" cx="21.7" cy="109.2" rx="3.8" ry="3.8"/>
</g>
<g>
	<circle class="st0" cx="65.4" cy="127.6" r="3.8"/>
</g>
<g>
	
		<ellipse transform="matrix(0.7071 -0.7071 0.7071 0.7071 -45.5647 109.3778)" class="st0" cx="109.2" cy="109.7" rx="3.8" ry="3.8"/>
</g>
<g>
	<polygon class="st0" points="41.5,81.1 32.4,56.2 51,44.6 58.9,24.8 59.8,25.2 51.8,45.3 33.6,56.6 42.4,80.8 	"/>
</g>
<g>
	<path class="st0" d="M106.8,77.5l-21-32.2l24.5-24.5L106.8,77.5z M87,45.5l18.9,29l3.2-51.1L87,45.5z"/>
</g>
<g>
	<path class="st0" d="M65.4,128.1l-44.1-18.5L3.2,65.4l18.5-44.1l0.2-0.1l43.5-18l0.2,0.1l44.4,18.4l0.1,0.2l18,44.1l-18.5,44.1
		L65.4,128.1z M22.1,108.9l43.3,18.2l43.5-17.8L127.1,66l-17.8-43.5L65.5,4.3l-43,17.8L4.3,65.4L22.1,108.9z"/>
</g>
<g>
	<polygon class="st0" points="108.8,109.7 105.9,76.9 65.9,106.1 41.6,80.8 65,65.8 51,45.2 51.8,44.7 66.4,66.1 43.2,81 66,104.7 
		106.8,75.1 109.7,109.6 	"/>
</g>
<g>
	<ellipse transform="matrix(0.7071 -0.7071 0.7071 0.7071 -6.806 74.3885)" class="st9" cx="86.4" cy="45.4" rx="3.8" ry="3.8"/>
</g>
</svg>
