<?xml version="1.0" encoding="utf-8"?>
<!-- Generator: Adobe Illustrator 19.2.1, SVG Export Plug-In . SVG Version: 6.00 Build 0)  -->
<svg version="1.1" id="Layer_1" xmlns="http://www.w3.org/2000/svg" xmlns:xlink="http://www.w3.org/1999/xlink" x="0px" y="0px"
	 width="88px" height="68px" viewBox="0 0 88 68" style="enable-background:new 0 0 88 68;" xml:space="preserve">
<g>
	<g>
		<path d="M84.1,30H65.8c0.9-8.7,4.7-16.8,11.1-23.1c3.8-3.8-1.9-9.4-5.7-5.6c-8,8-12.5,18.3-13.4,28.7H30.4
			C29.5,19.5,25,9.3,17,1.2c-3.8-3.8-9.4,1.9-5.7,5.6c6.3,6.3,10.2,14.4,11.1,23.1H4c-5.3,0-5.3,8,0,8h18.3
			c-0.9,8.7-4.7,16.8-11.1,23.1c-3.6,3.6,1.7,9.6,5.7,5.6c8-8,12.5-18.3,13.4-28.7h27.4c0.9,10.5,5.4,20.7,13.4,28.7
			c3.7,3.7,9.4-1.9,5.7-5.6C70.6,54.8,66.7,46.7,65.8,38h18.3C89.3,38,89.3,30,84.1,30z"/>
	</g>
</g>
</svg>
