<?xml version="1.0" encoding="utf-8"?>
<!-- Generator: Adobe Illustrator 19.2.1, SVG Export Plug-In . SVG Version: 6.00 Build 0)  -->
<svg version="1.1" id="Layer_1" xmlns="http://www.w3.org/2000/svg" xmlns:xlink="http://www.w3.org/1999/xlink" x="0px" y="0px"
	 width="64.6px" height="64.6px" viewBox="0 0 64.6 64.6" style="enable-background:new 0 0 64.6 64.6;" xml:space="preserve">
<g>
	<g>
		<path d="M60.6,0L32.3,0c-5.2,0-5.2,8,0,8L51,8L25.3,33.6L14,22.3c-3.7-3.7-9.4,1.9-5.7,5.7l11.3,11.3L1.2,57.7
			c-3.8,3.8,1.8,9.5,5.7,5.7L25.3,45l11.3,11.3c3.6,3.6,9.4-1.9,5.7-5.7L31,39.3l25.6-25.6l0,18.6c0,5.3,8,5.3,8,0l0-28.3
			C64.6,1.8,62.8,0,60.6,0z"/>
	</g>
</g>
</svg>
