<?xml version="1.0" encoding="utf-8"?>
<!-- Generator: Adobe Illustrator 19.2.1, SVG Export Plug-In . SVG Version: 6.00 Build 0)  -->
<svg version="1.1" id="Layer_1" xmlns="http://www.w3.org/2000/svg" xmlns:xlink="http://www.w3.org/1999/xlink" x="0px" y="0px"
	 width="88px" height="68px" viewBox="0 0 88 68" style="enable-background:new 0 0 88 68;" xml:space="preserve">
<g>
	<g>
		<path d="M80,54v6h-6c-3.3,0-6-2.7-6-6V14c0-7.7-6.3-14-14-14c-3.9,0-7.5,1.6-10,4.2C41.5,1.6,37.9,0,34,0s-7.5,1.6-10,4.2
			C21.5,1.6,17.9,0,14,0C6.3,0,0,6.3,0,14c0,5.1,8,5.1,8,0c0-3.3,2.7-6,6-6s6,2.7,6,6v40c0,5.6,8,5.6,8,0V14c0-3.3,2.7-6,6-6
			s6,2.7,6,6v40c0,5.6,8,5.6,8,0V14c0-3.3,2.7-6,6-6s6,2.7,6,6v40c0,7.7,6.3,14,14,14h10c2.2,0,4-1.8,4-4V54C88,48.6,80,48.6,80,54z
			"/>
	</g>
</g>
</svg>
