<?xml version="1.0" encoding="utf-8"?>
<!-- Generator: Adobe Illustrator 19.2.1, SVG Export Plug-In . SVG Version: 6.00 Build 0)  -->
<svg version="1.1" xmlns="http://www.w3.org/2000/svg" xmlns:xlink="http://www.w3.org/1999/xlink" x="0px" y="0px" width="51px"
	 height="52px" viewBox="0 0 51 52" style="enable-background:new 0 0 51 52;" xml:space="preserve">
<style type="text/css">
	.st0{clip-path:url(#SVGID_2_);}
	.st1{fill:#BBBBBB;}
	.st2{clip-path:url(#SVGID_4_);}
	.st3{clip-path:url(#SVGID_6_);}
	.st4{fill:#00295E;}
	.st5{fill:url(#SVGID_7_);}
	.st6{fill:#FFFFFF;}
	.st7{fill:none;stroke:#FFFFFF;stroke-miterlimit:10;}
	.st8{clip-path:url(#SVGID_9_);}
	.st9{opacity:0.8;fill:#5D5D5D;}
	.st10{fill:none;stroke:#FFFF00;stroke-miterlimit:10;}
	.st11{fill:#0F00CF;stroke:#FFFFFF;stroke-miterlimit:10;}
	.st12{opacity:0.5;fill:#F5F5F5;}
	.st13{fill:#666666;}
	.st14{fill:none;stroke:#FFFFFF;stroke-width:2;stroke-miterlimit:10;}
	.st15{fill:#F15A24;}
	.st16{fill:#F2F2F2;}
	.st17{fill:#F5F5F5;}
	.st18{opacity:0.7;}
	.st19{fill:#4F6B87;}
	.st20{fill:none;stroke:#4F6B87;stroke-width:2;stroke-miterlimit:10;}
	.st21{fill:#204B72;stroke:#204B72;stroke-width:0.9313;stroke-miterlimit:10;}
	.st22{fill:#204B72;}
	.st23{fill:#F5F5F5;stroke:#F5F5F5;stroke-width:0.9313;stroke-miterlimit:10;}
	.st24{display:none;}
	.st25{display:inline;}
	.st26{opacity:0.16;fill:#204B72;}
	.st27{fill:#CCCCCC;}
	.st28{fill:none;stroke:#FFFFFF;stroke-width:2;stroke-linecap:round;stroke-miterlimit:10;}
	.st29{opacity:0.67;fill:none;stroke:#F2F2F2;stroke-width:2;stroke-miterlimit:10;}
	.st30{fill:#204B72;stroke:#FFFFFF;stroke-miterlimit:10;}
	.st31{fill:none;stroke:#FFFF00;stroke-width:2;stroke-miterlimit:10;}
	.st32{fill:#0F00CF;stroke:#FFFFFF;stroke-width:1.2;stroke-miterlimit:10;}
	.st33{opacity:0.4;fill:none;stroke:#F2F2F2;stroke-linecap:round;stroke-miterlimit:10;}
	.st34{fill:#E6E6E6;}
	.st35{fill:#204B72;stroke:#FFFFFF;stroke-width:2;stroke-miterlimit:10;}
	.st36{opacity:0.85;fill:#F5F5F5;stroke:#00295E;stroke-width:4.335;stroke-miterlimit:10;stroke-opacity:0.75;}
	.st37{fill:none;stroke:#204B72;stroke-width:3;stroke-miterlimit:10;}
	.st38{fill:none;stroke:#F2F2F2;stroke-linecap:round;stroke-miterlimit:10;}
	.st39{opacity:0.7;fill:none;stroke:#F2F2F2;stroke-linecap:round;stroke-miterlimit:10;}
	.st40{fill:none;stroke:#F2F2F2;stroke-width:0.7627;stroke-linecap:round;stroke-miterlimit:10;}
</style>
<g id="MAP">
</g>
<g id="HOME">
</g>
<g id="SPACE">
</g>
<g id="ELEMENTS">
</g>
<g id="PARTICLES">
</g>
<g id="BUTTON_1_">
	<g>
		<path class="st17" d="M49,2v48H2V2H49 M51,0H0v52h51V0L51,0z"/>
	</g>
	<g class="st18">
		<rect x="5" y="6" class="st22" width="41" height="41"/>
	</g>
	<path class="st23" d="M41.9,21.8c-0.6-2.1-3.8-2.2-6.5-1.9c-2.1-3.4-5.9-5.7-10.2-5.7c-6.5,0-11.8,5.2-12,11.7
		c-2.5,1.1-5.2,2.7-4.6,4.9c0.4,1.4,1.8,2,4.4,2c0.5,0,1.1,0,1.7-0.1c0.2,0,0.3,0,0.5,0c2.1,3.3,5.9,5.5,10.1,5.5
		c6.4,0,11.7-5.1,12-11.5C40.9,25,42.4,23.4,41.9,21.8z M25.2,15.9c5.6,0,10.2,4.6,10.2,10.2c0,0,0,0,0,0.1c-1,0.4-2.1,0.8-3.5,1.2
		c-0.6-0.9-1.6-1.3-2.7-1.1c-1.1,0.3-1.8,1.3-1.8,2.4C27,28.9,26.5,29,26,29.2c-3.9,1.1-7.1,1.8-9.6,2.1C15.6,29.8,15,28,15,26.1
		C15,20.5,19.6,15.9,25.2,15.9z M9.7,30.4c-0.3-0.9,1-2.1,3.6-3.3c0.1,1.6,0.6,3.1,1.2,4.4C12.5,31.7,10,31.6,9.7,30.4z M25.2,36.3
		c-3.3,0-6.2-1.6-8.1-4c2.5-0.4,5.5-1.1,9.2-2.1c0.5-0.1,0.9-0.3,1.4-0.4c0.5,1,1.7,1.5,2.8,1.2c1.2-0.3,1.9-1.4,1.8-2.6
		c1.1-0.4,2.1-0.7,3-1.1C34.7,32.5,30.4,36.3,25.2,36.3z M37.2,25.4c-0.1-1.6-0.5-3.1-1.1-4.5c2.8-0.2,4.5,0.2,4.8,1.1
		C41,22.8,40.4,24,37.2,25.4z"/>
	<path class="st23" d="M41.9,21.8c-0.6-2.1-3.8-2.2-6.5-1.9c-2.1-3.4-5.9-5.7-10.2-5.7c-6.5,0-11.8,5.2-12,11.7
		c-2.5,1.1-5.2,2.7-4.6,4.9c0.4,1.4,1.8,2,4.4,2c0.5,0,1.1,0,1.7-0.1c0.2,0,0.3,0,0.5,0c2.1,3.3,5.9,5.5,10.1,5.5
		c6.4,0,11.7-5.1,12-11.5C40.9,25,42.4,23.4,41.9,21.8z M25.2,15.9c5.6,0,10.2,4.6,10.2,10.2c0,0,0,0,0,0.1c-1,0.4-2.1,0.8-3.5,1.2
		c-0.6-0.9-1.6-1.3-2.7-1.1c-1.1,0.3-1.8,1.3-1.8,2.4C27,28.9,26.5,29,26,29.2c-3.9,1.1-7.1,1.8-9.6,2.1C15.6,29.8,15,28,15,26.1
		C15,20.5,19.6,15.9,25.2,15.9z M9.7,30.4c-0.3-0.9,1-2.1,3.6-3.3c0.1,1.6,0.6,3.1,1.2,4.4C12.5,31.7,10,31.6,9.7,30.4z M25.2,36.3
		c-3.3,0-6.2-1.6-8.1-4c2.5-0.4,5.5-1.1,9.2-2.1c0.5-0.1,0.9-0.3,1.4-0.4c0.5,1,1.7,1.5,2.8,1.2c1.2-0.3,1.9-1.4,1.8-2.6
		c1.1-0.4,2.1-0.7,3-1.1C34.7,32.5,30.4,36.3,25.2,36.3z M37.2,25.4c-0.1-1.6-0.5-3.1-1.1-4.5c2.8-0.2,4.5,0.2,4.8,1.1
		C41,22.8,40.4,24,37.2,25.4z"/>
</g>
<g id="TEXT">
</g>
<g id="SIDE_MENU">
</g>
<g id="SIGNS">
</g>
<g id="STARS">
</g>
<g id="INFO_MODAL">
</g>
<g id="WELCOME">
</g>
<g id="COMPASS">
</g>
</svg>
