<?xml version="1.0" encoding="utf-8"?>
<!-- Generator: Adobe Illustrator 19.2.1, SVG Export Plug-In . SVG Version: 6.00 Build 0)  -->
<svg version="1.1" id="Layer_1" xmlns="http://www.w3.org/2000/svg" xmlns:xlink="http://www.w3.org/1999/xlink" x="0px" y="0px"
	 width="88px" height="68px" viewBox="0 0 88 68" style="enable-background:new 0 0 88 68;" xml:space="preserve">
<g>
	<g>
		<path d="M84,0c-8.8,0-17,4.1-23.1,11.5c-9.5,11.4-24.5,11.3-33.8,0C21,4.1,12.8,0,4.1,0c-5.4,0-5.4,8,0,8c6.3,0,12.4,3,16.9,8.5
			c2.7,3.3,5.9,5.9,9.3,7.8C24.1,28.7,20.1,35.9,20.1,44c0,13.2,10.8,24,24,24c13.2,0,24-10.8,24-24c0-8.1-4-15.3-10.2-19.6
			c3.4-1.9,6.6-4.5,9.3-7.8C71.7,11,77.7,8,84,8C89.3,8,89.3,0,84,0z M60,44c0,8.8-7.2,16-16,16s-16-7.2-16-16s7.2-16,16-16
			S60,35.2,60,44z"/>
	</g>
</g>
</svg>
