<?xml version="1.0" encoding="utf-8"?>
<!-- Generator: Adobe Illustrator 19.2.1, SVG Export Plug-In . SVG Version: 6.00 Build 0)  -->
<svg version="1.1" id="Layer_1" xmlns="http://www.w3.org/2000/svg" xmlns:xlink="http://www.w3.org/1999/xlink" x="0px" y="0px"
	 width="88px" height="68px" viewBox="0 0 88 68" style="enable-background:new 0 0 88 68;" xml:space="preserve">
<g>
	<g>
		<path d="M83.8,60H74c-2.7,0-5-1.8-5.7-4.2L81,43.1c4.5-4.5,7-10.6,7-17c0-7.7-6.3-14-14-14c-2.2,0-4.2,0.5-6,1.4
			C67.7,6,61.5,0,54,0c-3.9,0-7.5,1.6-10,4.2C41.5,1.6,37.9,0,34,0s-7.5,1.6-10,4.2C21.5,1.6,17.9,0,14,0C6.3,0,0,6.3,0,14
			c0,5.3,8,5.3,8,0c0-3.3,2.7-6,6-6s6,2.7,6,6v40c0,5.5,8,5.5,8,0V14c0-3.3,2.7-6,6-6s6,2.7,6,6v40c0,5.3,8,5.3,8,0V14
			c0-3.3,2.7-6,6-6s6,2.7,6,6v38.7l-8.5,8.5c-3.8,3.8,2.1,9.2,5.7,5.7l5.1-5.1C64.8,65.5,69.1,68,74,68h9.8C89.1,68,89.1,60,83.8,60
			z M68,26.1c0-3.3,2.7-6,6-6s6,2.7,6,6c0,4.3-1.7,8.3-4.7,11.3L68,44.7V26.1z"/>
	</g>
</g>
</svg>
